<svg xmlns="http://www.w3.org/2000/svg" width="640" height="960" viewBox="0 0 640 960"><rect width="100%" height="100%" fill="#DDDDDD"/><path fill="#999999" d="m166.49 449.27-18.23 22.32-2.13 2.63q1.79-.89 3.85-1.38 2.06-.49 4.44-.49 3.49 0 6.78 1.15t5.8 3.46q2.51 2.32 4.04 5.76 1.53 3.44 1.53 8.03 0 4.3-1.57 8.06-1.58 3.76-4.42 6.56-2.85 2.81-6.87 4.42-4.01 1.62-8.86 1.62-4.93 0-8.84-1.57-3.91-1.58-6.67-4.4-2.76-2.83-4.23-6.8-1.47-3.98-1.47-8.82 0-4.34 1.77-8.9 1.76-4.57 5.46-9.5l14.66-19.68q.77-1.02 2.23-1.74 1.47-.73 3.38-.73h9.35Zm-15.85 53.55q2.51 0 4.61-.85 2.1-.85 3.61-2.38 1.51-1.53 2.36-3.59.85-2.06.85-4.48 0-2.64-.81-4.74-.8-2.1-2.29-3.57-1.49-1.47-3.57-2.23-2.08-.77-4.59-.77t-4.55.85q-2.04.85-3.48 2.36-1.45 1.51-2.26 3.57-.8 2.06-.8 4.44 0 2.55.7 4.66.7 2.1 2.08 3.59 1.38 1.49 3.42 2.32 2.04.82 4.72.82Zm36.3-15.25h18.7v-20.11q0-2.84.38-6.29l-19.08 26.4Zm27.83 0h7.74v6.07q0 .86-.55 1.47-.56.62-1.58.62h-5.61v15h-9.13v-15h-25.93q-1.06 0-1.87-.66t-1.02-1.64l-1.1-5.31 29.11-38.89h9.94v38.34Zm57.08-7.57q0 8.03-1.72 13.96-1.72 5.93-4.76 9.8-3.04 3.87-7.18 5.76-4.15 1.89-8.95 1.89-4.8 0-8.9-1.89-4.1-1.89-7.12-5.76-3.02-3.87-4.72-9.8-1.7-5.93-1.7-13.96 0-8.07 1.7-13.98t4.72-9.78q3.02-3.86 7.12-5.75 4.1-1.9 8.9-1.9 4.8 0 8.95 1.9 4.14 1.89 7.18 5.75 3.04 3.87 4.76 9.78 1.72 5.91 1.72 13.98Zm-10.84 0q0-6.67-.97-11.05-.98-4.38-2.62-6.97-1.63-2.59-3.76-3.63-2.12-1.04-4.42-1.04-2.25 0-4.36 1.04-2.1 1.04-3.71 3.63-1.62 2.59-2.58 6.97-.95 4.38-.95 11.05 0 6.67.95 11.05.96 4.38 2.58 6.97 1.61 2.59 3.71 3.64 2.11 1.04 4.36 1.04 2.3 0 4.42-1.04 2.13-1.05 3.76-3.64 1.64-2.59 2.62-6.97.97-4.38.97-11.05Zm78.33 16.66-5.57 5.48-14.4-14.4-14.54 14.49-5.57-5.48 14.54-14.58-13.86-13.86 5.53-5.52 13.85 13.85 13.77-13.77 5.61 5.53-13.81 13.81 14.45 14.45Zm39.27-28.94q0 5.14 2.66 7.84 2.65 2.7 7.54 2.7 2.55 0 4.55-.81t3.36-2.21q1.36-1.4 2.06-3.31.7-1.92.7-4.13 0-2.5-.77-4.48-.76-1.98-2.16-3.34-1.41-1.36-3.34-2.08t-4.23-.72q-2.38 0-4.29.79-1.91.78-3.27 2.18-1.36 1.41-2.09 3.34-.72 1.94-.72 4.23Zm-5.14 43.01 19.08-23.84q.72-.9 1.36-1.75.64-.85 1.23-1.7-2.12 1.36-4.67 2.07-2.55.7-5.36.7-3.18 0-6.24-1.11-3.06-1.1-5.44-3.33-2.38-2.24-3.85-5.53-1.47-3.29-1.47-7.71 0-4.13 1.53-7.74 1.53-3.61 4.3-6.33 2.76-2.72 6.63-4.29 3.86-1.58 8.54-1.58 4.72 0 8.48 1.49 3.76 1.49 6.41 4.17 2.66 2.67 4.08 6.41 1.43 3.74 1.43 8.21 0 2.84-.49 5.39-.49 2.56-1.38 4.91-.89 2.36-2.17 4.61-1.27 2.26-2.85 4.47l-14.06 20.06q-.73 1.02-2.17 1.72-1.45.7-3.27.7h-9.65Zm80.83-61.46-18.23 22.32-2.12 2.63q1.78-.89 3.84-1.38 2.06-.49 4.44-.49 3.49 0 6.78 1.15 3.3 1.15 5.8 3.46 2.51 2.32 4.04 5.76 1.53 3.44 1.53 8.03 0 4.3-1.57 8.06-1.57 3.76-4.42 6.56-2.85 2.81-6.87 4.42-4.01 1.62-8.86 1.62-4.93 0-8.84-1.57-3.91-1.58-6.67-4.4-2.76-2.83-4.23-6.8-1.46-3.98-1.46-8.82 0-4.34 1.76-8.9 1.76-4.57 5.46-9.5l14.66-19.68q.77-1.02 2.23-1.74 1.47-.73 3.38-.73h9.35Zm-15.85 53.55q2.51 0 4.61-.85 2.11-.85 3.61-2.38 1.51-1.53 2.36-3.59.85-2.06.85-4.48 0-2.64-.8-4.74-.81-2.1-2.3-3.57-1.49-1.47-3.57-2.23-2.08-.77-4.59-.77t-4.55.85q-2.04.85-3.48 2.36-1.45 1.51-2.25 3.57-.81 2.06-.81 4.44 0 2.55.7 4.66.7 2.1 2.08 3.59 1.38 1.49 3.42 2.32 2.04.82 4.72.82ZM510.36 480q0 8.03-1.72 13.96-1.72 5.93-4.76 9.8-3.04 3.87-7.18 5.76-4.15 1.89-8.95 1.89-4.8 0-8.9-1.89-4.1-1.89-7.12-5.76-3.02-3.87-4.72-9.8-1.7-5.93-1.7-13.96 0-8.07 1.7-13.98t4.72-9.78q3.02-3.86 7.12-5.75 4.1-1.9 8.9-1.9 4.8 0 8.95 1.9 4.14 1.89 7.18 5.75 3.04 3.87 4.76 9.78 1.72 5.91 1.72 13.98Zm-10.84 0q0-6.67-.97-11.05-.98-4.38-2.62-6.97-1.63-2.59-3.76-3.63-2.12-1.04-4.42-1.04-2.25 0-4.36 1.04-2.1 1.04-3.71 3.63-1.62 2.59-2.58 6.97-.95 4.38-.95 11.05 0 6.67.95 11.05.96 4.38 2.58 6.97 1.61 2.59 3.71 3.64 2.11 1.04 4.36 1.04 2.3 0 4.42-1.04 2.13-1.05 3.76-3.64 1.64-2.59 2.62-6.97.97-4.38.97-11.05Z"/></svg>